<?xml version="1.0" encoding="utf-8"?><svg viewBox="0 0 92 91" xmlns="http://www.w3.org/2000/svg" xmlns:xlink="http://www.w3.org/1999/xlink"><style>:root>svg{display:none}:root>svg:target{display:block}</style><svg fill="none" viewBox="0 0 92 91" id="002wheel" xmlns="http://www.w3.org/2000/svg"><g clip-path="url(#aa)" fill="#FFF8F8"><path d="M83.2 38.6c-3.525 0-6.436 2.609-6.922 6H58.093a13.353 13.353 0 0 0-3.54-8.024l.071.072 13.954-13.954-.75-.75-13.95 13.951a13.372 13.372 0 0 0-8.09-3.601v-18.37h-.02c3.4-.477 6.02-3.391 6.02-6.924a7 7 0 1 0-14 0c0 3.533 2.621 6.447 6.022 6.924h-.022v18.357a13.383 13.383 0 0 0-8.68 3.907 13.383 13.383 0 0 0-3.893 8.412H13v2h18.203a13.36 13.36 0 0 0 3.613 8.356l-13.77 13.771c-.994-.849-2.23-1.332-3.552-1.332-1.469 0-2.85.572-3.889 1.611a5.506 5.506 0 0 0 0 7.777 5.462 5.462 0 0 0 3.89 1.609c1.47 0 2.85-.571 3.89-1.61a5.464 5.464 0 0 0 1.61-3.89 5.43 5.43 0 0 0-1.213-3.403L35.572 55.7a13.35 13.35 0 0 0 8.216 3.485v18.09h.022c-3.4.478-6.022 3.392-6.022 6.925a7 7 0 0 0 14 0c0-3.533-2.62-6.447-6.02-6.925h.02V59.174a13.36 13.36 0 0 0 7.904-3.434l13.783 13.783.75-.75L54.453 55a13.349 13.349 0 0 0 3.651-8.4h18.174c.486 3.392 3.396 6 6.921 6a7 7 0 1 0 0-14zm-26.256 9.387zM20.676 76.076a4.471 4.471 0 0 1-3.183 1.318 4.476 4.476 0 0 1-3.182-1.317 4.506 4.506 0 0 1 0-6.364 4.469 4.469 0 0 1 3.182-1.318c1.203 0 2.333.469 3.183 1.318a4.466 4.466 0 0 1 1.318 3.182 4.465 4.465 0 0 1-1.318 3.181zm23.58-21.855a8.512 8.512 0 0 0 5.871-1.982 8.478 8.478 0 0 1-5.872 1.982zm5.702-3.184a7.452 7.452 0 0 1-5.304 2.193 7.447 7.447 0 0 1-5.303-2.193 7.448 7.448 0 0 1-2.193-5.303 7.45 7.45 0 0 1 2.192-5.303 7.45 7.45 0 0 1 5.304-2.192c2.006 0 3.89.779 5.304 2.192 2.924 2.923 2.924 7.681 0 10.606zm7.12-6.437a12.457 12.457 0 0 0-1.836-5.51 12.37 12.37 0 0 1 1.836 5.51zm-1.065 6.349zm.56-1.458z"/><path d="M6 52.6a7 7 0 1 0 0-14 7 7 0 0 0 0 14zm66.083-28.795c1.469 0 2.85-.572 3.889-1.61a5.503 5.503 0 0 0 0-7.778 5.464 5.464 0 0 0-3.89-1.611 5.466 5.466 0 0 0-3.89 1.61 5.467 5.467 0 0 0-1.61 3.89 5.47 5.47 0 0 0 1.61 3.889 5.47 5.47 0 0 0 3.891 1.61zm-3.184-8.682a4.471 4.471 0 0 1 3.183-1.318 4.47 4.47 0 0 1 3.183 1.318 4.506 4.506 0 0 1 0 6.364 4.468 4.468 0 0 1-3.182 1.317 4.478 4.478 0 0 1-3.184-1.317 4.473 4.473 0 0 1-1.317-3.182c0-1.201.468-2.331 1.317-3.182zm3.184 52.271c-1.47 0-2.852.572-3.891 1.611a5.465 5.465 0 0 0-1.61 3.89 5.47 5.47 0 0 0 1.61 3.89 5.466 5.466 0 0 0 3.891 1.61 5.46 5.46 0 0 0 3.889-1.61 5.504 5.504 0 0 0 0-7.778 5.454 5.454 0 0 0-3.889-1.613zm3.182 8.682a4.464 4.464 0 0 1-3.182 1.318 4.482 4.482 0 0 1-3.184-1.318 4.47 4.47 0 0 1-1.317-3.182c0-1.205.468-2.333 1.317-3.184a4.47 4.47 0 0 1 3.184-1.316c1.202 0 2.332.468 3.182 1.316a4.509 4.509 0 0 1 0 6.367zM17.493 23.805a5.448 5.448 0 0 0 3.212-1.053l13.896 13.896.75-.75-13.849-13.85a5.45 5.45 0 0 0 1.492-3.742 5.466 5.466 0 0 0-1.61-3.89 5.46 5.46 0 0 0-3.89-1.61c-1.47 0-2.852.572-3.89 1.61a5.462 5.462 0 0 0-1.608 3.889c0 1.47.571 2.852 1.608 3.889a5.46 5.46 0 0 0 3.89 1.61zm-3.182-8.682a4.468 4.468 0 0 1 3.183-1.317c1.202 0 2.332.468 3.182 1.317a4.467 4.467 0 0 1 1.318 3.183 4.478 4.478 0 0 1-1.318 3.182 4.468 4.468 0 0 1-3.183 1.317 4.474 4.474 0 0 1-3.182-1.317 4.467 4.467 0 0 1-1.315-3.182c0-1.203.467-2.334 1.315-3.183z"/></g><defs><clipPath id="aa"><path fill="#fff" d="M0 0h92v91H0z"/></clipPath></defs></svg></svg>